<svg width="144" height="144" viewBox="0 0 144 144" fill="none" xmlns="http://www.w3.org/2000/svg">
<path d="M71.8475 0C32.163 0 0 32.163 0 71.8475C0 102.298 18.9442 128.287 45.6624 138.755C45.045 133.058 44.4556 124.358 45.915 118.155C47.2341 112.542 54.3346 82.4562 54.3346 82.4562C54.3346 82.4562 52.1736 78.1622 52.1736 71.7913C52.1736 61.8 57.9551 54.3346 65.1679 54.3346C71.2861 54.3346 74.2611 58.9374 74.2611 64.4662C74.2611 70.6406 70.3319 79.8461 68.3112 88.378C66.6273 95.5347 71.9036 101.372 78.948 101.372C91.7178 101.372 101.541 87.9009 101.541 68.4796C101.541 51.2755 89.1919 39.2355 71.5387 39.2355C51.1071 39.2355 39.0951 54.5592 39.0951 70.4161C39.0951 76.5905 41.4807 83.2139 44.4556 86.8063C45.045 87.508 45.1292 88.1535 44.9608 88.8551C44.4275 91.1284 43.1927 96.0118 42.9681 96.9941C42.6594 98.3131 41.9297 98.5938 40.5545 97.9483C31.5736 93.7665 25.9605 80.66 25.9605 70.1074C25.9605 47.4305 42.4349 26.6341 73.4191 26.6341C98.3412 26.6341 117.706 44.3995 117.706 68.1428C117.706 92.8965 102.102 112.823 80.4355 112.823C73.1665 112.823 66.3186 109.034 63.9611 104.572C63.9611 104.572 60.3687 118.296 59.4987 121.664C57.8709 127.894 53.4927 135.724 50.5739 140.495C57.3096 142.572 64.4382 143.695 71.8475 143.695C111.532 143.695 143.695 111.532 143.695 71.8475C143.695 32.163 111.532 0 71.8475 0Z" fill="white"/>
</svg>
